<svg width="32" height="32" xmlns="http://www.w3.org/2000/svg">

 <g>
  <title>background</title>
  <rect fill="none" id="canvas_background" height="402" width="582" y="-1" x="-1"/>
 </g>
 <g>
  <title fill="#ffffff">Layer 1</title>
  <path id="svg_1" fill-rule="evenodd" fill="#ffffff" d="m16.003,0c-8.833,0 -15.995,7.162 -15.995,15.997c0,7.066999 4.582,13.063 10.94,15.179001c0.8,0.146 1.052,-0.328001 1.052,-0.752001c0,-0.379999 0.008,-1.441999 0,-2.777c-4.449,0.967001 -5.371,-2.106998 -5.371,-2.106998c-0.727,-1.848001 -1.775,-2.34 -1.775,-2.34c-1.452,-0.992001 0.109,-0.973001 0.109,-0.973001c1.605,0.113001 2.451,1.649 2.451,1.649c1.427,2.443001 3.743,1.737001 4.654,1.329c0.146,-1.034 0.56,-1.739 1.017,-2.139c-3.552,-0.403999 -7.286,-1.775999 -7.286,-7.906c0,-1.747 0.623,-3.174 1.646,-4.292c-0.165,-0.404 -0.715,-2.031 0.157,-4.234c0,0 1.342999,-0.43 4.398,1.641c1.276,-0.355 2.645,-0.532 4.004999,-0.538c1.359001,0.006 2.727001,0.183 4.005001,0.538c3.055,-2.07 4.396,-1.641 4.396,-1.641c0.872,2.203 0.323,3.83 0.159,4.234c1.022999,1.118 1.643999,2.545 1.643999,4.292c0,6.146 -3.74,7.498001 -7.303999,7.893c0.573999,0.495001 1.094999,1.455 1.094999,2.947001c0,2 0,3.902 0,4.427999c0,0.428001 0.257999,0.901001 1.07,0.746c6.352001,-2.118999 10.93,-8.112 10.93,-15.177c0,-8.835 -7.162001,-15.997 -15.997,-15.997z" clip-rule="evenodd"/>
 </g>
</svg>