<svg width="60.00000000000001" height="60.00000000000001" xmlns="http://www.w3.org/2000/svg">
 <title/>
 <desc/>

 <g>
  <title>background</title>
  <rect fill="none" id="canvas_background" height="402" width="582" y="-1" x="-1"/>
 </g>
 <g>
  <title fill="#ffffff">Layer 1</title>
  <path fill="#ffffff" id="svg_1" d="m25.42527,47.516891c0,-0.449722 -0.01586,-1.63966 -0.024929,-3.220062c-5.135162,1.143459 -6.218632,-2.53793 -6.218632,-2.53793c-0.839809,-2.186989 -2.050219,-2.76918 -2.050219,-2.76918c-1.67621,-1.174839 0.12694,-1.15044 0.12694,-1.15044c1.853008,0.13364 2.827679,1.951103 2.827679,1.951103c1.64674,2.892349 4.32029,2.057999 5.373161,1.573418c0.16774,-1.22364 0.644871,-2.057999 1.171879,-2.53096c-4.099289,-0.4776 -8.40938,-2.102158 -8.40938,-9.355709c0,-2.066141 0.719671,-3.755772 1.90061,-5.07935c-0.18927,-0.478771 -0.82394,-2.403131 0.181332,-5.009632c0,0 1.550409,-0.50898 5.076229,1.940639c1.47221,-0.41951 3.05208,-0.630999 4.62289,-0.63797c1.56741,0.006971 3.146149,0.21846 4.621758,0.63797c3.52356,-2.449619 5.071701,-1.940639 5.071701,-1.940639c1.007542,2.605331 0.374001,4.529701 0.183601,5.009632c1.183212,1.323578 1.897209,3.013208 1.897209,5.07935c0,7.272152 -4.316887,8.872299 -8.429779,9.340599c0.664139,0.584522 1.253471,1.739597 1.253471,3.505932c0,2.53096 -0.023804,4.572689 -0.023804,5.19323c0,0.506649 0.333202,1.094658 1.270481,0.909889c7.329311,-2.507721 12.614071,-9.598591 12.614071,-17.95842c0,-10.455021 -8.266579,-18.929901 -18.462111,-18.929901c-10.194389,0 -18.46097,8.47488 -18.46097,18.929901c0.00113,8.36216 5.29043,15.457668 12.626541,17.960739c0.922539,0.173149 1.260269,-0.411369 1.260269,-0.912209z"/>
 </g>
</svg>